<svg width="371" height="72" viewBox="0 0 371 72" fill="none" xmlns="http://www.w3.org/2000/svg">
<g clip-path="url(#clip0_0_10)">
<path d="M0 25C0 11.1929 11.1929 0 25 0H346C359.807 0 371 11.1929 371 25V47C371 60.8071 359.807 72 346 72H25C11.1929 72 0 60.8071 0 47V25Z" fill="#343434"/>
<path d="M148.155 32.6378C148.098 32.0649 147.854 31.6198 147.423 31.3026C146.992 30.9853 146.408 30.8267 145.669 30.8267C145.167 30.8267 144.743 30.8977 144.398 31.0398C144.052 31.1771 143.787 31.3688 143.602 31.6151C143.422 31.8613 143.332 32.1406 143.332 32.4531C143.323 32.7135 143.377 32.9408 143.496 33.1349C143.619 33.3291 143.787 33.4972 144 33.6392C144.213 33.7765 144.459 33.8973 144.739 34.0014C145.018 34.1009 145.316 34.1861 145.634 34.2571L146.94 34.5696C147.575 34.7116 148.157 34.901 148.688 35.1378C149.218 35.3745 149.677 35.6657 150.065 36.0114C150.454 36.357 150.754 36.7642 150.967 37.233C151.185 37.7017 151.296 38.2391 151.301 38.8452C151.296 39.7353 151.069 40.5071 150.619 41.1605C150.174 41.8092 149.53 42.3134 148.688 42.6733C147.849 43.0284 146.839 43.206 145.655 43.206C144.481 43.206 143.458 43.026 142.587 42.6662C141.72 42.3063 141.043 41.7737 140.555 41.0682C140.072 40.358 139.819 39.4796 139.795 38.4332H142.771C142.804 38.9209 142.944 39.3281 143.19 39.6548C143.441 39.9768 143.775 40.2206 144.192 40.3864C144.613 40.5473 145.089 40.6278 145.619 40.6278C146.14 40.6278 146.592 40.5521 146.976 40.4006C147.364 40.2491 147.665 40.0384 147.878 39.7685C148.091 39.4986 148.197 39.1884 148.197 38.8381C148.197 38.5114 148.1 38.2367 147.906 38.0142C147.717 37.7917 147.438 37.6023 147.068 37.446C146.704 37.2898 146.256 37.1477 145.726 37.0199L144.142 36.6222C142.916 36.3239 141.947 35.8575 141.237 35.223C140.527 34.5885 140.174 33.7339 140.179 32.6591C140.174 31.7784 140.409 31.009 140.882 30.3509C141.36 29.6927 142.016 29.179 142.849 28.8097C143.683 28.4403 144.63 28.2557 145.69 28.2557C146.77 28.2557 147.712 28.4403 148.517 28.8097C149.327 29.179 149.956 29.6927 150.406 30.3509C150.856 31.009 151.088 31.7713 151.102 32.6378H148.155ZM153.313 43V32.0909H156.338V43H153.313ZM154.833 30.6847C154.383 30.6847 153.997 30.5355 153.675 30.2372C153.358 29.9342 153.199 29.572 153.199 29.1506C153.199 28.7339 153.358 28.3764 153.675 28.0781C153.997 27.7751 154.383 27.6236 154.833 27.6236C155.283 27.6236 155.666 27.7751 155.983 28.0781C156.305 28.3764 156.466 28.7339 156.466 29.1506C156.466 29.572 156.305 29.9342 155.983 30.2372C155.666 30.5355 155.283 30.6847 154.833 30.6847ZM163.677 47.3182C162.697 47.3182 161.856 47.1832 161.156 46.9134C160.46 46.6482 159.906 46.286 159.494 45.8267C159.082 45.3674 158.814 44.8513 158.691 44.2784L161.489 43.902C161.575 44.1198 161.71 44.3234 161.894 44.5128C162.079 44.7022 162.323 44.8537 162.626 44.9673C162.933 45.0857 163.308 45.1449 163.748 45.1449C164.406 45.1449 164.948 44.9839 165.374 44.6619C165.805 44.3447 166.021 43.812 166.021 43.0639V41.0682H165.893C165.76 41.3712 165.561 41.6577 165.296 41.9276C165.031 42.1974 164.69 42.4176 164.273 42.5881C163.857 42.7585 163.36 42.8438 162.782 42.8438C161.963 42.8438 161.217 42.6544 160.545 42.2756C159.877 41.892 159.344 41.3073 158.947 40.5213C158.554 39.7306 158.357 38.7315 158.357 37.5241C158.357 36.2884 158.558 35.2562 158.961 34.4276C159.363 33.599 159.898 32.9787 160.566 32.5668C161.238 32.1548 161.975 31.9489 162.775 31.9489C163.386 31.9489 163.897 32.053 164.309 32.2614C164.721 32.465 165.052 32.7206 165.303 33.0284C165.559 33.3314 165.755 33.6297 165.893 33.9233H166.006V32.0909H169.011V43.1065C169.011 44.0346 168.783 44.8111 168.329 45.4361C167.874 46.0611 167.245 46.5298 166.44 46.8423C165.639 47.1596 164.719 47.3182 163.677 47.3182ZM163.741 40.571C164.228 40.571 164.64 40.4503 164.977 40.2088C165.317 39.9626 165.578 39.6122 165.758 39.1577C165.942 38.6984 166.035 38.1491 166.035 37.5099C166.035 36.8707 165.945 36.3168 165.765 35.848C165.585 35.3745 165.325 35.0076 164.984 34.7472C164.643 34.4867 164.228 34.3565 163.741 34.3565C163.244 34.3565 162.825 34.4915 162.484 34.7614C162.143 35.0265 161.885 35.3958 161.71 35.8693C161.534 36.3428 161.447 36.8897 161.447 37.5099C161.447 38.1397 161.534 38.6842 161.71 39.1435C161.889 39.598 162.147 39.9508 162.484 40.2017C162.825 40.4479 163.244 40.571 163.741 40.571ZM174.444 36.6932V43H171.418V32.0909H174.302V34.0156H174.43C174.671 33.3812 175.076 32.8793 175.644 32.5099C176.212 32.1359 176.901 31.9489 177.711 31.9489C178.469 31.9489 179.129 32.1146 179.692 32.446C180.256 32.7775 180.694 33.2509 181.006 33.8665C181.319 34.4773 181.475 35.2064 181.475 36.054V43H178.45V36.5938C178.454 35.9261 178.284 35.4053 177.938 35.0312C177.593 34.6525 177.117 34.4631 176.511 34.4631C176.103 34.4631 175.744 34.5507 175.431 34.7259C175.123 34.901 174.882 35.1567 174.707 35.4929C174.536 35.8243 174.449 36.2244 174.444 36.6932ZM188.489 43V32.0909H191.514V43H188.489ZM190.009 30.6847C189.559 30.6847 189.173 30.5355 188.851 30.2372C188.534 29.9342 188.375 29.572 188.375 29.1506C188.375 28.7339 188.534 28.3764 188.851 28.0781C189.173 27.7751 189.559 27.6236 190.009 27.6236C190.458 27.6236 190.842 27.7751 191.159 28.0781C191.481 28.3764 191.642 28.7339 191.642 29.1506C191.642 29.572 191.481 29.9342 191.159 30.2372C190.842 30.5355 190.458 30.6847 190.009 30.6847ZM196.963 36.6932V43H193.938V32.0909H196.821V34.0156H196.949C197.191 33.3812 197.596 32.8793 198.164 32.5099C198.732 32.1359 199.421 31.9489 200.23 31.9489C200.988 31.9489 201.649 32.1146 202.212 32.446C202.775 32.7775 203.213 33.2509 203.526 33.8665C203.838 34.4773 203.995 35.2064 203.995 36.054V43H200.969V36.5938C200.974 35.9261 200.803 35.4053 200.458 35.0312C200.112 34.6525 199.636 34.4631 199.03 34.4631C198.623 34.4631 198.263 34.5507 197.951 34.7259C197.643 34.901 197.401 35.1567 197.226 35.4929C197.056 35.8243 196.968 36.2244 196.963 36.6932ZM213.16 43L210.191 32.0909H213.252L214.943 39.4205H215.042L216.804 32.0909H219.808L221.598 39.3778H221.69L223.352 32.0909H226.406L223.444 43H220.241L218.366 36.1392H218.231L216.356 43H213.16ZM228.02 43V32.0909H231.045V43H228.02ZM229.54 30.6847C229.09 30.6847 228.704 30.5355 228.382 30.2372C228.065 29.9342 227.906 29.572 227.906 29.1506C227.906 28.7339 228.065 28.3764 228.382 28.0781C228.704 27.7751 229.09 27.6236 229.54 27.6236C229.99 27.6236 230.373 27.7751 230.69 28.0781C231.012 28.3764 231.173 28.7339 231.173 29.1506C231.173 29.572 231.012 29.9342 230.69 30.2372C230.373 30.5355 229.99 30.6847 229.54 30.6847ZM239.272 32.0909V34.3636H232.702V32.0909H239.272ZM234.194 29.4773H237.219V39.6477C237.219 39.9271 237.262 40.1449 237.347 40.3011C237.432 40.4527 237.551 40.5592 237.702 40.6207C237.858 40.6823 238.038 40.7131 238.242 40.7131C238.384 40.7131 238.526 40.7012 238.668 40.6776C238.81 40.6491 238.919 40.6278 238.995 40.6136L239.471 42.8651C239.319 42.9124 239.106 42.9669 238.831 43.0284C238.557 43.0947 238.223 43.1349 237.83 43.1491C237.101 43.1776 236.462 43.0805 235.912 42.858C235.368 42.6354 234.944 42.2898 234.641 41.821C234.338 41.3523 234.189 40.7604 234.194 40.0455V29.4773ZM244.502 36.6932V43H241.477V28.4545H244.417V34.0156H244.545C244.791 33.3717 245.189 32.8674 245.738 32.5028C246.288 32.1335 246.976 31.9489 247.805 31.9489C248.563 31.9489 249.223 32.1146 249.787 32.446C250.355 32.7727 250.795 33.2438 251.108 33.8594C251.425 34.4702 251.581 35.2017 251.576 36.054V43H248.551V36.5938C248.556 35.9214 248.385 35.3982 248.039 35.0241C247.699 34.6501 247.22 34.4631 246.605 34.4631C246.193 34.4631 245.828 34.5507 245.511 34.7259C245.199 34.901 244.952 35.1567 244.772 35.4929C244.597 35.8243 244.507 36.2244 244.502 36.6932ZM272.01 35.7273C272.01 37.3134 271.709 38.6629 271.108 39.7756C270.511 40.8883 269.697 41.7382 268.664 42.3253C267.637 42.9077 266.482 43.1989 265.199 43.1989C263.906 43.1989 262.746 42.9053 261.718 42.3182C260.691 41.7311 259.879 40.8812 259.282 39.7685C258.686 38.6558 258.387 37.3087 258.387 35.7273C258.387 34.1411 258.686 32.7917 259.282 31.679C259.879 30.5663 260.691 29.7187 261.718 29.1364C262.746 28.5492 263.906 28.2557 265.199 28.2557C266.482 28.2557 267.637 28.5492 268.664 29.1364C269.697 29.7187 270.511 30.5663 271.108 31.679C271.709 32.7917 272.01 34.1411 272.01 35.7273ZM268.892 35.7273C268.892 34.6998 268.738 33.8333 268.43 33.1278C268.127 32.4223 267.699 31.8873 267.145 31.5227C266.591 31.1581 265.942 30.9759 265.199 30.9759C264.455 30.9759 263.806 31.1581 263.252 31.5227C262.699 31.8873 262.268 32.4223 261.96 33.1278C261.657 33.8333 261.505 34.6998 261.505 35.7273C261.505 36.7547 261.657 37.6212 261.96 38.3267C262.268 39.0322 262.699 39.5672 263.252 39.9318C263.806 40.2964 264.455 40.4787 265.199 40.4787C265.942 40.4787 266.591 40.2964 267.145 39.9318C267.699 39.5672 268.127 39.0322 268.43 38.3267C268.738 37.6212 268.892 36.7547 268.892 35.7273ZM274.288 43V28.4545H277.313V33.9233H277.406C277.538 33.6297 277.73 33.3314 277.981 33.0284C278.237 32.7206 278.568 32.465 278.975 32.2614C279.387 32.053 279.898 31.9489 280.509 31.9489C281.305 31.9489 282.039 32.1572 282.711 32.5739C283.383 32.9858 283.921 33.6084 284.323 34.4418C284.726 35.2704 284.927 36.3097 284.927 37.5597C284.927 38.7765 284.73 39.804 284.337 40.642C283.949 41.4754 283.419 42.1075 282.746 42.5384C282.079 42.9645 281.331 43.1776 280.502 43.1776C279.915 43.1776 279.415 43.0805 279.004 42.8864C278.596 42.6922 278.263 42.4484 278.002 42.1548C277.742 41.8565 277.543 41.5559 277.406 41.2528H277.271V43H274.288ZM277.249 37.5455C277.249 38.1941 277.339 38.7599 277.519 39.2429C277.699 39.7259 277.96 40.1023 278.3 40.3722C278.641 40.6373 279.056 40.7699 279.543 40.7699C280.036 40.7699 280.452 40.6349 280.793 40.3651C281.134 40.0904 281.392 39.7116 281.567 39.2287C281.747 38.741 281.837 38.1799 281.837 37.5455C281.837 36.9157 281.75 36.3617 281.575 35.8835C281.399 35.4053 281.141 35.0312 280.8 34.7614C280.46 34.4915 280.04 34.3565 279.543 34.3565C279.051 34.3565 278.634 34.4867 278.293 34.7472C277.957 35.0076 277.699 35.3769 277.519 35.8551C277.339 36.3333 277.249 36.8968 277.249 37.5455ZM289.971 28.4545V43H286.946V28.4545H289.971ZM294.163 43.1847C293.695 43.1847 293.292 43.0189 292.956 42.6875C292.625 42.3513 292.459 41.9489 292.459 41.4801C292.459 41.0161 292.625 40.6184 292.956 40.2869C293.292 39.9555 293.695 39.7898 294.163 39.7898C294.618 39.7898 295.016 39.9555 295.357 40.2869C295.697 40.6184 295.868 41.0161 295.868 41.4801C295.868 41.7926 295.787 42.0791 295.626 42.3395C295.47 42.5952 295.264 42.8011 295.009 42.9574C294.753 43.1089 294.471 43.1847 294.163 43.1847ZM303.281 43.2131C302.178 43.2131 301.224 42.9787 300.419 42.5099C299.618 42.0365 299.001 41.3783 298.565 40.5355C298.129 39.688 297.912 38.7055 297.912 37.5881C297.912 36.4612 298.129 35.4763 298.565 34.6335C299.001 33.786 299.618 33.1278 300.419 32.6591C301.224 32.1856 302.178 31.9489 303.281 31.9489C304.384 31.9489 305.336 32.1856 306.136 32.6591C306.941 33.1278 307.561 33.786 307.997 34.6335C308.432 35.4763 308.65 36.4612 308.65 37.5881C308.65 38.7055 308.432 39.688 307.997 40.5355C307.561 41.3783 306.941 42.0365 306.136 42.5099C305.336 42.9787 304.384 43.2131 303.281 43.2131ZM303.295 40.8693C303.797 40.8693 304.216 40.7273 304.552 40.4432C304.888 40.1544 305.142 39.7614 305.312 39.2642C305.487 38.767 305.575 38.2012 305.575 37.5668C305.575 36.9323 305.487 36.3665 305.312 35.8693C305.142 35.3722 304.888 34.9792 304.552 34.6903C304.216 34.4015 303.797 34.2571 303.295 34.2571C302.788 34.2571 302.362 34.4015 302.017 34.6903C301.676 34.9792 301.418 35.3722 301.243 35.8693C301.072 36.3665 300.987 36.9323 300.987 37.5668C300.987 38.2012 301.072 38.767 301.243 39.2642C301.418 39.7614 301.676 40.1544 302.017 40.4432C302.362 40.7273 302.788 40.8693 303.295 40.8693ZM313.643 36.6932V43H310.618V32.0909H313.501V34.0156H313.629C313.87 33.3812 314.275 32.8793 314.843 32.5099C315.412 32.1359 316.1 31.9489 316.91 31.9489C317.668 31.9489 318.328 32.1146 318.892 32.446C319.455 32.7775 319.893 33.2509 320.206 33.8665C320.518 34.4773 320.674 35.2064 320.674 36.054V43H317.649V36.5938C317.654 35.9261 317.483 35.4053 317.137 35.0312C316.792 34.6525 316.316 34.4631 315.71 34.4631C315.303 34.4631 314.943 34.5507 314.63 34.7259C314.323 34.901 314.081 35.1567 313.906 35.4929C313.735 35.8243 313.648 36.2244 313.643 36.6932ZM327.974 47.3182C326.994 47.3182 326.153 47.1832 325.452 46.9134C324.756 46.6482 324.202 46.286 323.79 45.8267C323.379 45.3674 323.111 44.8513 322.988 44.2784L325.786 43.902C325.871 44.1198 326.006 44.3234 326.191 44.5128C326.376 44.7022 326.62 44.8537 326.923 44.9673C327.23 45.0857 327.604 45.1449 328.045 45.1449C328.703 45.1449 329.245 44.9839 329.671 44.6619C330.102 44.3447 330.317 43.812 330.317 43.0639V41.0682H330.19C330.057 41.3712 329.858 41.6577 329.593 41.9276C329.328 42.1974 328.987 42.4176 328.57 42.5881C328.154 42.7585 327.656 42.8438 327.079 42.8438C326.26 42.8438 325.514 42.6544 324.842 42.2756C324.174 41.892 323.641 41.3073 323.244 40.5213C322.851 39.7306 322.654 38.7315 322.654 37.5241C322.654 36.2884 322.855 35.2562 323.258 34.4276C323.66 33.599 324.195 32.9787 324.863 32.5668C325.535 32.1548 326.272 31.9489 327.072 31.9489C327.683 31.9489 328.194 32.053 328.606 32.2614C329.018 32.465 329.349 32.7206 329.6 33.0284C329.856 33.3314 330.052 33.6297 330.19 33.9233H330.303V32.0909H333.308V43.1065C333.308 44.0346 333.08 44.8111 332.626 45.4361C332.171 46.0611 331.541 46.5298 330.737 46.8423C329.936 47.1596 329.015 47.3182 327.974 47.3182ZM328.038 40.571C328.525 40.571 328.937 40.4503 329.273 40.2088C329.614 39.9626 329.875 39.6122 330.055 39.1577C330.239 38.6984 330.332 38.1491 330.332 37.5099C330.332 36.8707 330.242 36.3168 330.062 35.848C329.882 35.3745 329.621 35.0076 329.281 34.7472C328.94 34.4867 328.525 34.3565 328.038 34.3565C327.54 34.3565 327.121 34.4915 326.781 34.7614C326.44 35.0265 326.182 35.3958 326.006 35.8693C325.831 36.3428 325.744 36.8897 325.744 37.5099C325.744 38.1397 325.831 38.6842 326.006 39.1435C326.186 39.598 326.444 39.9508 326.781 40.2017C327.121 40.4479 327.54 40.571 328.038 40.571Z" fill="white"/>
<path d="M122.828 44.5567C122.325 46.7007 120.731 48.6009 118.115 50.1841C115.493 51.7703 111.899 53.0007 107.55 53.7939C98.8548 55.3797 87.3317 55.1836 75.0615 52.7881C62.7913 50.3926 52.1895 46.2691 44.9674 41.5757C41.3548 39.228 38.628 36.7638 36.9476 34.3375C35.2705 31.9161 34.6692 29.5873 35.1722 27.4433C35.6751 25.2994 37.2685 23.3992 39.8851 21.816C42.5069 20.2296 46.1004 18.9994 50.4498 18.2061C59.145 16.6203 70.6681 16.8164 82.9383 19.2119C95.2086 21.6075 105.81 25.731 113.033 30.4244C116.645 32.772 119.372 35.2363 121.052 37.6625C122.729 40.0839 123.331 42.4127 122.828 44.5567Z" fill="#FF206E" stroke="#0C0F0A" stroke-width="2"/>
</g>
<defs>
<clipPath id="clip0_0_10">
<rect width="371" height="72" rx="25" fill="white"/>
</clipPath>
</defs>
</svg>
